<svg width="24" height="24" viewBox="0 0 24 24" fill="none" xmlns="http://www.w3.org/2000/svg">
<g clip-path="url(#clip0_71_239)">
<path d="M17.4862 -7.05128e-06C16.1249 0.0918678 14.668 0.901868 13.7662 1.99499C12.9768 2.95687 12.3149 4.36874 12.5662 5.83499C12.3412 5.76562 12.1368 5.75812 11.8912 5.66999C11.2218 5.43187 10.4568 5.17499 9.50616 5.17499C7.61803 5.17499 5.68491 6.29812 4.46616 8.17499C2.69241 10.9012 3.04866 15.6994 5.74116 19.8C6.21554 20.52 6.76866 21.3056 7.45116 21.93C8.13366 22.5544 8.95866 23.0306 9.92616 23.04C10.753 23.0494 11.3287 22.7737 11.8462 22.545C12.3637 22.3162 12.8455 22.1137 13.7512 22.11C13.7568 22.11 13.7605 22.11 13.7662 22.11C14.668 22.1025 15.1349 22.3012 15.6412 22.53C16.1474 22.7587 16.7174 23.0475 17.5462 23.04C18.5324 23.0325 19.3705 22.4925 20.0662 21.825C20.7618 21.1575 21.3337 20.3381 21.8062 19.62C22.483 18.5887 22.7549 18.0262 23.2762 16.875C23.3305 16.755 23.3324 16.6162 23.2799 16.4944C23.2293 16.3725 23.1299 16.2769 23.0062 16.23C21.2999 15.585 20.3268 14.0756 20.1862 12.48C20.0455 10.8844 20.7205 9.24187 22.4212 8.30999C22.5468 8.24249 22.6349 8.12437 22.6649 7.98562C22.693 7.84687 22.6593 7.70062 22.5712 7.58999C21.3505 6.07312 19.633 5.17499 17.9512 5.17499C16.8787 5.17499 16.0912 5.42812 15.4462 5.66999C15.3393 5.71124 15.2605 5.70749 15.1612 5.74499C15.8155 5.39999 16.393 4.92187 16.8262 4.36499C17.6137 3.35437 18.2212 1.91624 17.9962 0.404993C17.9587 0.157493 17.7355 -0.0187571 17.4862 -7.05128e-06ZM16.9762 1.13999C16.9443 2.10937 16.6124 3.05812 16.0612 3.76499C15.4837 4.50749 14.5124 5.02124 13.5712 5.17499C13.588 4.24312 13.9555 3.27749 14.5162 2.59499C15.1049 1.88249 16.0799 1.36874 16.9762 1.13999ZM9.50616 6.13499C9.92616 6.13499 10.9012 6.33562 11.5612 6.56999C12.2212 6.80437 12.9168 7.07999 13.7362 7.07999C14.5368 7.07999 15.1705 6.80249 15.7912 6.56999C16.4118 6.33749 17.0305 6.13499 17.9512 6.13499C19.153 6.13499 20.4524 6.75937 21.4762 7.84499C19.8374 9.00187 19.0705 10.8056 19.2262 12.555C19.3818 14.3231 20.4468 16.0012 22.1962 16.875C22.1937 16.8805 22.1912 16.8859 22.1887 16.8913C21.8141 17.7072 21.5644 18.2512 21.0112 19.095C20.5518 19.7944 20.0062 20.5594 19.4062 21.135C18.8062 21.7106 18.1705 22.0744 17.5312 22.08C16.9143 22.0856 16.5637 21.9019 16.0312 21.66C15.4987 21.4181 14.8105 21.1406 13.7512 21.15C12.6937 21.1556 11.9962 21.4219 11.4562 21.66C10.9162 21.8981 10.5618 22.0856 9.94116 22.08C9.28491 22.0744 8.67554 21.7556 8.09616 21.225C7.51679 20.6944 6.99366 19.9706 6.53616 19.275C4.01616 15.435 3.81366 10.9237 5.26116 8.69999C6.32241 7.06687 9.08616 6.13499 9.50616 6.13499Z" fill="black"/>
<path d="M9.50616 6.13499C9.92616 6.13499 10.9012 6.33562 11.5612 6.56999C12.2212 6.80437 12.9168 7.07999 13.7362 7.07999C14.5368 7.07999 15.1705 6.80249 15.7912 6.56999C16.4118 6.33749 17.0305 6.13499 17.9512 6.13499C19.153 6.13499 20.4524 6.75937 21.4762 7.84499C19.8374 9.00187 19.0705 10.8056 19.2262 12.555C19.3818 14.3231 20.4468 16.0012 22.1962 16.875L22.1887 16.8913C21.8141 17.7072 21.5644 18.2512 21.0112 19.095C20.5518 19.7944 20.0062 20.5594 19.4062 21.135C18.8062 21.7106 18.1705 22.0744 17.5312 22.08C16.9143 22.0856 16.5637 21.9019 16.0312 21.66C15.4987 21.4181 14.8105 21.1406 13.7512 21.15C12.6937 21.1556 11.9962 21.4219 11.4562 21.66C10.9162 21.8981 10.5618 22.0856 9.94116 22.08C9.28491 22.0744 8.67554 21.7556 8.09616 21.225C7.51679 20.6944 6.99366 19.9706 6.53616 19.275C4.01616 15.435 3.81366 10.9237 5.26116 8.69999C6.32241 7.06687 9.08616 6.13499 9.50616 6.13499Z" fill="black"/>
<path d="M16.9762 1.13999C16.9443 2.10937 16.6124 3.05812 16.0612 3.76499C15.4837 4.50749 14.5124 5.02124 13.5712 5.17499C13.588 4.24312 13.9555 3.27749 14.5162 2.59499C15.1049 1.88249 16.0799 1.36874 16.9762 1.13999Z" fill="black"/>
</g>
<defs>
<clipPath id="clip0_71_239">
<rect width="24" height="24" fill="white"/>
</clipPath>
</defs>
</svg>
